<svg xmlns="http://www.w3.org/2000/svg" width="1120" height="640" viewBox="0 0 1120 640" role="img" aria-label="msgpack benchmark (purego, ubuntu): Primitive encode">
<rect class="background" width="100%" height="100%"/>
<style>
svg{color-scheme:light dark}
.background{fill:#ffffff}
text{font-family:-apple-system,BlinkMacSystemFont,"Segoe UI",sans-serif;fill:#111827}
.subtitle{fill:#6b7280;font-size:13px}
.label{font-size:12px}
.value{fill:#374151;font-size:12px}
.axis{stroke:#d1d5db;stroke-width:1}
.grid{stroke:#e5e7eb;stroke-width:1}
@media (prefers-color-scheme:dark){
.background{fill:#111827}
text{fill:#f9fafb}
.subtitle{fill:#9ca3af}
.value{fill:#d1d5db}
.axis{stroke:#4b5563}
.grid{stroke:#374151}
}
</style>
<text x="24" y="32" font-size="22" font-weight="700">msgpack benchmark (purego, ubuntu): Primitive encode</text>
<text x="24" y="56" class="subtitle">metric: ns/op, lower is better, log scale, generated 2026-06-02</text>
<line x1="320" y1="66" x2="320" y2="594" class="axis"/>
<line x1="320" y1="66" x2="320" y2="594" class="grid"/>
<line x1="477" y1="66" x2="477" y2="594" class="grid"/>
<line x1="635" y1="66" x2="635" y2="594" class="grid"/>
<line x1="792" y1="66" x2="792" y2="594" class="grid"/>
<line x1="950" y1="66" x2="950" y2="594" class="grid"/>
<text x="24" y="95" class="label">Primitive encode BoolShamaton</text>
<rect x="320" y="82" width="17.0" height="16" rx="3" fill="#2563eb"/>
<text x="345" y="95" class="value">38.29 ns/op</text>
<text x="24" y="123" class="label">Primitive encode BoolVmihailenco</text>
<rect x="320" y="110" width="61.1" height="16" rx="3" fill="#c2410c"/>
<text x="389" y="123" class="value">78.29 ns/op</text>
<text x="24" y="151" class="label">Primitive encode FloatShamaton</text>
<rect x="320" y="138" width="39.5" height="16" rx="3" fill="#2563eb"/>
<text x="367" y="151" class="value">55.19 ns/op</text>
<text x="24" y="179" class="label">Primitive encode FloatVmihailenco</text>
<rect x="320" y="166" width="68.5" height="16" rx="3" fill="#c2410c"/>
<text x="396" y="179" class="value">88.36 ns/op</text>
<text x="24" y="207" class="label">Primitive encode IntShamaton</text>
<rect x="320" y="194" width="33.8" height="16" rx="3" fill="#2563eb"/>
<text x="361" y="207" class="value">50.32 ns/op</text>
<text x="24" y="235" class="label">Primitive encode IntVmihailenco</text>
<rect x="320" y="222" width="71.1" height="16" rx="3" fill="#c2410c"/>
<text x="399" y="235" class="value">92.11 ns/op</text>
<text x="24" y="263" class="label">Primitive encode StringShamaton</text>
<rect x="320" y="250" width="65.5" height="16" rx="3" fill="#2563eb"/>
<text x="393" y="263" class="value">84.1 ns/op</text>
<text x="24" y="291" class="label">Primitive encode StringVmihailenco</text>
<rect x="320" y="278" width="74.7" height="16" rx="3" fill="#c2410c"/>
<text x="402" y="291" class="value">97.73 ns/op</text>
<text x="24" y="319" class="label">Primitive encode TimeShamaton</text>
<rect x="320" y="306" width="55.3" height="16" rx="3" fill="#2563eb"/>
<text x="383" y="319" class="value">71.29 ns/op</text>
<text x="24" y="347" class="label">Primitive encode TimeVmihailenco</text>
<rect x="320" y="334" width="78.5" height="16" rx="3" fill="#c2410c"/>
<text x="406" y="347" class="value">103.9 ns/op</text>
<text x="24" y="375" class="label">Primitive encode ByteShamaton</text>
<rect x="320" y="362" width="66.1" height="16" rx="3" fill="#2563eb"/>
<text x="394" y="375" class="value">84.93 ns/op</text>
<text x="24" y="403" class="label">Primitive encode ByteVmihailenco</text>
<rect x="320" y="390" width="78.3" height="16" rx="3" fill="#c2410c"/>
<text x="406" y="403" class="value">103.5 ns/op</text>
<text x="24" y="431" class="label">Primitive encode InterfaceShamaton</text>
<rect x="320" y="418" width="143.1" height="16" rx="3" fill="#2563eb"/>
<text x="471" y="431" class="value">296.4 ns/op</text>
<text x="24" y="459" class="label">Primitive encode InterfaceVmihailenco</text>
<rect x="320" y="446" width="164.9" height="16" rx="3" fill="#c2410c"/>
<text x="492" y="459" class="value">422.6 ns/op</text>
<text x="24" y="487" class="label">Primitive encode Array10000Shamaton</text>
<rect x="320" y="474" width="451.8" height="16" rx="3" fill="#2563eb"/>
<text x="779" y="487" class="value">44542 ns/op</text>
<text x="24" y="515" class="label">Primitive encode Array10000Vmihailenco</text>
<rect x="320" y="502" width="533.4" height="16" rx="3" fill="#c2410c"/>
<text x="861" y="515" class="value">167501 ns/op</text>
<text x="24" y="543" class="label">Primitive encode Map10000Shamaton</text>
<rect x="320" y="530" width="542.9" height="16" rx="3" fill="#2563eb"/>
<text x="870" y="543" class="value">195448 ns/op</text>
<text x="24" y="571" class="label">Primitive encode Map10000Vmihailenco</text>
<rect x="320" y="558" width="630.0" height="16" rx="3" fill="#c2410c"/>
<text x="958" y="571" class="value">804035 ns/op</text>
</svg>
