<svg xmlns="http://www.w3.org/2000/svg" width="1120" height="500" viewBox="0 0 1120 500" role="img" aria-label="msgpack benchmark (purego, ubuntu): Use case encode">
<rect class="background" width="100%" height="100%"/>
<style>
svg{color-scheme:light dark}
.background{fill:#ffffff}
text{font-family:-apple-system,BlinkMacSystemFont,"Segoe UI",sans-serif;fill:#111827}
.subtitle{fill:#6b7280;font-size:13px}
.label{font-size:12px}
.value{fill:#374151;font-size:12px}
.axis{stroke:#d1d5db;stroke-width:1}
.grid{stroke:#e5e7eb;stroke-width:1}
@media (prefers-color-scheme:dark){
.background{fill:#111827}
text{fill:#f9fafb}
.subtitle{fill:#9ca3af}
.value{fill:#d1d5db}
.axis{stroke:#4b5563}
.grid{stroke:#374151}
}
</style>
<text x="24" y="32" font-size="22" font-weight="700">msgpack benchmark (purego, ubuntu): Use case encode</text>
<text x="24" y="56" class="subtitle">metric: ns/op, lower is better, linear scale, generated 2026-06-02</text>
<line x1="320" y1="66" x2="320" y2="454" class="axis"/>
<line x1="320" y1="66" x2="320" y2="454" class="grid"/>
<line x1="477" y1="66" x2="477" y2="454" class="grid"/>
<line x1="635" y1="66" x2="635" y2="454" class="grid"/>
<line x1="792" y1="66" x2="792" y2="454" class="grid"/>
<line x1="950" y1="66" x2="950" y2="454" class="grid"/>
<text x="24" y="95" class="label">Use case encode ShamatonGenArray</text>
<rect x="320" y="82" width="64.9" height="16" rx="3" fill="#0f766e"/>
<text x="392" y="95" class="value">1739 ns/op</text>
<text x="24" y="123" class="label">Use case encode ShamatonGenMap</text>
<rect x="320" y="110" width="73.4" height="16" rx="3" fill="#0f766e"/>
<text x="401" y="123" class="value">1967 ns/op</text>
<text x="24" y="151" class="label">Use case encode ShamatonGen</text>
<rect x="320" y="138" width="73.9" height="16" rx="3" fill="#0f766e"/>
<text x="401" y="151" class="value">1980 ns/op</text>
<text x="24" y="179" class="label">Use case encode Tinylib</text>
<rect x="320" y="166" width="78.2" height="16" rx="3" fill="#15803d"/>
<text x="406" y="179" class="value">2097 ns/op</text>
<text x="24" y="207" class="label">Use case encode ProtocolBuffer</text>
<rect x="320" y="194" width="162.7" height="16" rx="3" fill="#7c3aed"/>
<text x="490" y="207" class="value">4361 ns/op</text>
<text x="24" y="235" class="label">Use case encode ShamatonArray</text>
<rect x="320" y="222" width="224.5" height="16" rx="3" fill="#2563eb"/>
<text x="552" y="235" class="value">6019 ns/op</text>
<text x="24" y="263" class="label">Use case encode VmihailencoArray</text>
<rect x="320" y="250" width="301.0" height="16" rx="3" fill="#c2410c"/>
<text x="628" y="263" class="value">8069 ns/op</text>
<text x="24" y="291" class="label">Use case encode Shamaton</text>
<rect x="320" y="278" width="314.7" height="16" rx="3" fill="#2563eb"/>
<text x="642" y="291" class="value">8437 ns/op</text>
<text x="24" y="319" class="label">Use case encode Json</text>
<rect x="320" y="306" width="391.9" height="16" rx="3" fill="#ca8a04"/>
<text x="719" y="319" class="value">10507 ns/op</text>
<text x="24" y="347" class="label">Use case encode Gob</text>
<rect x="320" y="334" width="430.2" height="16" rx="3" fill="#64748b"/>
<text x="758" y="347" class="value">11534 ns/op</text>
<text x="24" y="375" class="label">Use case encode Ugorji</text>
<rect x="320" y="362" width="446.7" height="16" rx="3" fill="#0891b2"/>
<text x="774" y="375" class="value">11974 ns/op</text>
<text x="24" y="403" class="label">Use case encode Vmihailenco</text>
<rect x="320" y="390" width="456.4" height="16" rx="3" fill="#c2410c"/>
<text x="784" y="403" class="value">12235 ns/op</text>
<text x="24" y="431" class="label">Use case encode Zeroformatter</text>
<rect x="320" y="418" width="630.0" height="16" rx="3" fill="#be123c"/>
<text x="958" y="431" class="value">16889 ns/op</text>
</svg>
